<svg xmlns="http://www.w3.org/2000/svg" viewBox="0 0 64 64">
<circle cx="32" cy="32" r="30" fill="#EAF4FE"/>
<g fill="none" stroke="#006DAF" stroke-width="2.6" stroke-linecap="round" stroke-linejoin="round">

<path d="M32 10.5C28.5 10.5 25.5 11.2 23.6 12.3C17.6 12.9 13.3 17.1 14.2 23.2C15.0 29.3 17.2 33.8 18.5 40.4C19.1 43.8 23.5 44.3 24.3 40.9C25.1 37.4 27.2 33.9 32 33.9C36.8 33.9 38.9 37.4 39.7 40.9C40.5 44.3 44.9 43.8 45.5 40.4C46.8 33.8 49.0 29.3 49.8 23.2C50.7 17.1 46.4 12.9 40.4 12.3C38.5 11.2 35.5 10.5 32 10.5Z"/>
<rect x="27.5" y="19.5" width="9" height="8" rx="1.8" stroke="#009EFF"/>
<path d="M15.5 23.5h12M36.5 23.5h12" stroke="#009EFF"/>

</g>
</svg>
