<svg xmlns="http://www.w3.org/2000/svg" viewBox="0 0 64 64">
<circle cx="32" cy="32" r="30" fill="#EAF4FE"/>
<g fill="none" stroke="#006DAF" stroke-width="2.6" stroke-linecap="round" stroke-linejoin="round">

<g transform="translate(29.5 34) scale(0.86) translate(-32 -32)"><path d="M32 10.5C28.5 10.5 25.5 11.2 23.6 12.3C17.6 12.9 13.3 17.1 14.2 23.2C15.0 29.3 17.2 33.8 18.5 40.4C19.1 43.8 23.5 44.3 24.3 40.9C25.1 37.4 27.2 33.9 32 33.9C36.8 33.9 38.9 37.4 39.7 40.9C40.5 44.3 44.9 43.8 45.5 40.4C46.8 33.8 49.0 29.3 49.8 23.2C50.7 17.1 46.4 12.9 40.4 12.3C38.5 11.2 35.5 10.5 32 10.5Z"/></g>
<circle cx="48" cy="17.5" r="3.4" stroke="#009EFF"/>
<circle cx="53" cy="27.5" r="2.2" stroke="#009EFF"/>
<circle cx="46.5" cy="33.5" r="1.6" stroke="#009EFF"/>

</g>
</svg>
