<svg xmlns="http://www.w3.org/2000/svg" viewBox="0 0 64 64">
<circle cx="32" cy="32" r="30" fill="#EAF4FE"/>
<g fill="none" stroke="#006DAF" stroke-width="2.6" stroke-linecap="round" stroke-linejoin="round">

<path d="M23.5 12.5h17c.9 0 1.6.9 1.4 1.8l-1.7 7.2c-.15.6-.7 1-1.3 1H25.1c-.6 0-1.15-.4-1.3-1l-1.7-7.2c-.2-.9.5-1.8 1.4-1.8Z"/>
<path d="M28 22.5v3.5h8v-3.5"/>
<path d="M26.5 26h11v14.5c0 5.5-2.4 10-5.5 10s-5.5-4.5-5.5-10V26Z"/>
<path d="M26.5 31.5l11-2M26.5 37l11-2M27 42.5l10-2" stroke="#009EFF"/>

</g>
</svg>
